<?xml version="1.0" standalone="no"?>
<!DOCTYPE svg PUBLIC "-//W3C//DTD SVG 20010904//EN"
 "http://www.w3.org/TR/2001/REC-SVG-20010904/DTD/svg10.dtd">
<svg version="1.0" xmlns="http://www.w3.org/2000/svg"
 width="1600.000000pt" height="1000.000000pt" viewBox="0 0 1600.000000 1000.000000"
 preserveAspectRatio="xMidYMid meet">

<g transform="translate(0.000000,1000.000000) scale(0.100000,-0.100000)"
fill="#000000" stroke="none">
<path d="M7660 9400 c-69 -11 -143 -23 -165 -29 -22 -5 -71 -17 -110 -26 -206
-49 -562 -194 -690 -280 -20 -14 -38 -25 -40 -25 -7 0 -200 -135 -265 -185
-36 -27 -103 -86 -150 -130 -477 -450 -750 -994 -829 -1651 -25 -209 -10 -558
35 -784 117 -599 438 -1133 921 -1533 80 -65 270 -199 314 -220 8 -4 32 -18
54 -30 194 -111 464 -219 660 -263 264 -61 329 -68 630 -68 240 -1 318 4 430
25 33 6 80 14 105 19 261 48 613 185 828 323 24 15 45 27 47 27 7 0 140 93
208 146 423 327 725 755 895 1269 88 269 125 504 125 810 0 298 -28 482 -117
795 -19 64 -98 262 -138 345 -248 513 -681 957 -1173 1203 -142 71 -446 188
-510 197 -11 1 -58 12 -105 24 -79 19 -134 29 -300 51 -118 17 -521 10 -660
-10z m-483 -722 c11 -13 49 -66 85 -118 35 -52 118 -171 183 -265 65 -93 157
-226 205 -295 48 -69 134 -193 192 -276 58 -83 114 -165 124 -183 10 -17 21
-31 25 -31 3 0 11 -11 17 -25 6 -14 16 -25 21 -25 5 0 56 66 112 148 56 81
141 203 189 272 48 69 138 199 202 290 63 91 136 197 163 235 27 39 84 121
128 183 l79 112 419 0 c280 0 419 -3 419 -10 0 -6 -58 -93 -128 -193 -70 -100
-154 -220 -187 -267 -32 -47 -99 -143 -150 -215 -79 -112 -280 -401 -593 -850
-46 -66 -104 -151 -130 -188 -26 -38 -57 -81 -69 -97 -13 -15 -23 -32 -23 -38
0 -5 37 -63 83 -128 45 -66 150 -216 232 -334 81 -118 169 -244 195 -280 26
-36 80 -114 121 -173 101 -148 273 -395 299 -432 48 -67 290 -416 347 -500 34
-49 59 -93 57 -97 -3 -5 -189 -8 -414 -8 -315 0 -412 3 -420 13 -18 20 -99
135 -190 267 -48 69 -118 170 -156 225 -39 55 -144 206 -234 335 -198 284
-211 303 -284 408 -32 45 -61 82 -65 82 -5 0 -29 -30 -54 -67 -25 -38 -71
-104 -102 -148 -31 -44 -93 -133 -138 -198 -89 -129 -173 -249 -342 -491 -60
-87 -151 -217 -201 -289 l-91 -132 -417 -3 c-341 -2 -416 0 -416 11 0 7 39 69
87 138 104 148 198 285 447 644 103 149 192 277 199 285 7 8 36 51 66 95 30
44 87 127 128 185 41 58 124 177 185 265 61 88 135 195 164 238 30 42 54 82
54 88 0 6 -35 61 -78 123 -44 61 -137 194 -207 296 -71 102 -158 228 -195 280
-37 52 -125 178 -195 280 -71 102 -163 235 -205 295 -104 149 -296 425 -352
507 -26 36 -44 69 -40 72 3 3 191 6 417 6 l412 0 20 -22z m2183 -1547 c56 -26
112 -80 148 -140 24 -41 27 -56 27 -136 0 -82 -3 -95 -31 -145 -54 -95 -163
-160 -270 -160 -97 0 -208 67 -259 154 -117 205 45 468 280 453 33 -3 80 -14
105 -26z"/>
<path d="M10345 8671 c-53 -24 -91 -70 -110 -134 -14 -46 -14 -57 1 -107 28
-98 99 -152 200 -151 125 1 207 83 206 206 -1 87 -37 146 -114 186 -48 24
-130 25 -183 0z m204 -38 c55 -44 73 -86 69 -160 -3 -52 -9 -69 -35 -100 -44
-55 -82 -74 -149 -74 -47 0 -65 5 -98 28 -101 71 -115 217 -28 296 60 55 179
59 241 10z"/>
<path d="M10370 8491 c0 -66 4 -121 9 -121 4 0 9 15 9 33 0 67 0 67 36 67 36
0 59 -24 72 -74 3 -14 12 -26 20 -26 10 0 8 12 -8 49 l-20 50 21 27 c46 58 15
103 -77 111 l-62 6 0 -122z m104 89 c20 -7 26 -17 26 -39 0 -36 -26 -54 -73
-49 -28 3 -32 7 -35 36 -2 19 -1 40 2 48 6 16 44 18 80 4z"/>
<path d="M984 3407 c-2 -7 -3 -120 -2 -252 l3 -240 585 -5 585 -5 5 -1165 5
-1165 300 0 300 0 5 1165 5 1165 588 3 587 2 0 255 0 255 -1480 0 c-1188 0
-1482 -3 -1486 -13z"/>
<path d="M4370 1995 l0 -1425 303 2 302 3 3 1423 2 1422 -305 0 -305 0 0
-1425z"/>
<path d="M6026 3408 c-4 -14 -36 -225 -62 -413 -8 -60 -19 -132 -24 -160 -5
-27 -12 -72 -15 -100 -7 -56 -29 -209 -51 -360 -8 -55 -21 -147 -30 -205 -8
-58 -19 -130 -24 -160 -9 -52 -29 -195 -50 -355 -5 -38 -14 -97 -20 -130 -5
-33 -17 -112 -25 -175 -9 -63 -22 -155 -30 -205 -8 -49 -19 -126 -26 -170 -6
-44 -17 -125 -26 -180 -27 -181 -30 -210 -26 -217 2 -5 114 -8 248 -8 l245 0
5 23 c3 12 12 69 21 127 18 126 38 255 59 388 9 53 22 140 30 192 8 52 21 138
29 190 22 144 55 357 67 430 10 65 27 179 52 343 20 130 26 129 81 -8 20 -49
40 -99 45 -110 22 -52 99 -241 176 -430 40 -99 107 -263 148 -365 42 -102 103
-252 137 -335 33 -82 64 -159 69 -170 5 -11 26 -60 46 -110 20 -49 44 -107 53
-128 l16 -37 160 2 160 3 34 85 c19 47 38 94 43 105 4 11 18 45 29 75 11 30
25 64 30 75 5 11 19 45 30 75 12 30 28 69 35 85 7 17 36 90 64 163 28 73 55
140 61 150 5 9 25 58 44 107 53 139 226 578 236 600 6 11 21 49 34 85 38 102
74 180 84 180 9 0 20 -57 46 -235 8 -55 22 -149 31 -210 9 -60 23 -157 31
-215 9 -58 22 -145 30 -195 7 -49 25 -171 39 -270 15 -99 35 -238 46 -310 11
-71 26 -176 34 -233 8 -57 17 -108 20 -113 7 -11 542 -12 549 -1 2 4 -4 60
-15 123 -10 62 -28 173 -39 244 -11 72 -27 171 -36 220 -8 50 -21 131 -29 180
-8 50 -19 117 -25 150 -5 33 -24 146 -40 250 -17 105 -35 215 -40 245 -5 30
-26 154 -45 275 -34 216 -55 341 -76 460 -6 33 -17 101 -25 150 -7 50 -20 133
-29 185 -9 52 -22 138 -30 190 -9 52 -19 111 -23 130 l-8 35 -279 0 -280 0
-61 -165 c-146 -394 -297 -797 -310 -825 -8 -17 -18 -44 -23 -60 -9 -29 -49
-135 -91 -245 -27 -71 -41 -107 -77 -205 -91 -243 -116 -305 -123 -305 -9 0
-13 9 -94 215 -62 157 -110 275 -141 350 -7 17 -34 84 -59 150 -58 148 -85
214 -95 240 -26 63 -38 91 -83 205 -27 69 -72 179 -98 245 -27 66 -74 183
-104 260 l-55 140 -276 3 c-215 2 -276 0 -279 -10z"/>
<path d="M9615 3408 c-3 -7 -4 -647 -3 -1423 l3 -1410 1213 -3 c806 -1 1212 1
1212 8 1 13 1 181 0 358 l0 137 -901 -3 c-665 -2 -905 1 -915 9 -12 10 -14 73
-12 353 l3 341 808 3 807 2 0 250 0 250 -804 0 c-724 0 -804 2 -810 16 -8 20
-8 588 0 608 6 14 95 16 915 16 859 0 909 1 910 18 1 9 1 42 1 72 0 30 -1 135
-1 233 l-1 177 -1210 0 c-959 0 -1212 -3 -1215 -12z"/>
<path d="M12423 3407 c4 -11 115 -172 352 -512 85 -123 281 -404 365 -525 47
-69 119 -171 158 -227 40 -56 72 -108 72 -115 0 -7 -37 -65 -82 -128 -44 -63
-124 -178 -177 -255 -53 -77 -113 -162 -132 -190 -54 -76 -142 -204 -261 -375
-59 -85 -123 -177 -142 -205 -160 -226 -203 -291 -199 -297 2 -5 140 -8 307
-8 l303 0 49 70 c27 39 72 103 99 143 28 39 77 110 110 157 32 47 75 108 94
135 70 100 246 352 294 422 28 40 54 73 57 73 7 0 121 -161 350 -491 279 -404
334 -482 347 -495 12 -12 67 -14 319 -14 167 0 304 2 304 5 0 6 -38 63 -180
265 -44 63 -108 156 -142 205 -34 50 -118 171 -188 270 -161 231 -142 204
-240 346 -47 68 -118 169 -156 224 -110 156 -108 130 -20 259 42 61 110 158
151 216 41 58 99 141 129 185 30 44 77 112 104 150 75 107 252 362 307 440 26
39 79 113 117 166 37 53 68 101 68 108 0 8 -85 11 -308 11 l-308 0 -114 -165
c-63 -92 -146 -210 -185 -264 -38 -55 -97 -138 -130 -187 -125 -183 -205 -298
-213 -306 -11 -11 -25 2 -77 77 -42 60 -269 386 -376 540 -19 28 -75 107 -123
178 l-89 127 -309 0 c-252 0 -309 -2 -305 -13z"/>
<path d="M14464 2232 c-140 -66 -163 -257 -41 -352 66 -52 140 -63 210 -31 82
38 127 108 127 198 0 72 -28 125 -88 167 -55 39 -146 47 -208 18z m157 -17
c46 -20 62 -34 93 -79 84 -124 -40 -310 -188 -282 -133 25 -204 184 -130 289
54 76 148 106 225 72z"/>
<path d="M14487 2153 c-11 -11 -8 -223 3 -223 6 0 10 20 10 45 0 34 5 47 20
55 33 18 59 2 81 -51 12 -27 26 -49 31 -49 11 0 8 15 -13 67 -11 28 -11 34 4
51 24 26 23 88 -2 102 -22 11 -124 14 -134 3z m121 -25 c14 -14 16 -54 2 -63
-15 -9 -73 -15 -92 -9 -12 4 -18 16 -18 38 0 18 3 36 7 39 11 12 88 8 101 -5z"/>
</g>
</svg>
